<?xml version="1.0" encoding="utf-8"?>
<!-- Generator: Adobe Illustrator 16.0.0, SVG Export Plug-In . SVG Version: 6.00 Build 0)  -->
<!DOCTYPE svg PUBLIC "-//W3C//DTD SVG 1.1//EN" "http://www.w3.org/Graphics/SVG/1.1/DTD/svg11.dtd">
<svg version="1.1" id="Layer_1" xmlns="http://www.w3.org/2000/svg" xmlns:xlink="http://www.w3.org/1999/xlink" x="0px" y="0px"
	 width="128px" height="128px" viewBox="0 0 128 128" enable-background="new 0 0 128 128" xml:space="preserve">
<g>
	<g>
		<g>
			<rect id="Rectangle_8_" fill="#FF0000" width="128" height="128"/>
		</g>
	</g>
</g>
<g>
	<g>
		<g>
			<path fill="#FFFFFF" d="M64.926,104.331c-15.684,0.002-31.367,0-47.051,0.002c-3.859,0-6.328-2.456-6.343-6.394
				c-0.024-6.799-0.017-13.598-0.016-20.396c0.001-15.799-0.001-31.599,0.016-47.399c0.004-3.339,1.619-5.584,4.504-6.333
				c0.586-0.152,1.22-0.176,1.832-0.177c23.835-0.01,47.669-0.009,71.504-0.011c7.532,0,15.063-0.008,22.599-0.003
				c3.182,0.002,5.489,1.589,6.203,4.341c0.211,0.809,0.254,1.68,0.256,2.524c0.012,17.345,0.008,34.689,0.006,52.034
				c0,5.14,0.01,10.275-0.011,15.414c-0.015,3.258-1.731,5.594-4.608,6.25c-0.703,0.162-1.457,0.144-2.187,0.144
				C96.061,104.334,80.493,104.331,64.926,104.331z M16.312,42.511c32.536,0,64.909,0,97.334,0c0-4.313,0.006-8.521-0.004-12.729
				c-0.002-0.875-0.44-1.366-1.356-1.364c-0.927,0.001-1.854-0.01-2.78-0.01c-26.379,0-52.757,0-79.136,0
				c-4.094,0-8.188,0.011-12.282-0.004c-0.947-0.003-1.761,0.151-1.768,1.308C16.299,33.953,16.312,38.197,16.312,42.511z
				 M48.442,61.498c11.087,0,22.063,0,33.027,0c0-4.751,0-9.398,0-14.039c-11.06,0-22.01,0-33.027,0
				C48.442,52.161,48.442,56.779,48.442,61.498z M48.458,80.493c11.095,0,22.046,0,33.028,0c0-4.734,0-9.384,0-14.074
				c-11.041,0-21.993,0-33.028,0C48.458,71.131,48.458,75.777,48.458,80.493z M48.443,99.443c11.084,0,22.06,0,33.025,0
				c0-4.75,0-9.396,0-14.027c-11.06,0-22.009,0-33.025,0C48.443,90.109,48.443,94.729,48.443,99.443z M43.562,61.542
				c0-4.757,0-9.378,0-14.07c-9.098,0-18.141,0-27.16,0c0,4.745,0,9.393,0,14.07C25.48,61.542,34.464,61.542,43.562,61.542z
				 M43.552,66.46c-9.161,0-18.171,0-27.188,0c0,4.728,0,9.349,0,14.013c9.099,0,18.142,0,27.188,0
				C43.552,75.747,43.552,71.126,43.552,66.46z M86.404,80.47c9.104,0,18.144,0,27.185,0c0-4.729,0-9.351,0-14.007
				c-9.103,0-18.142,0-27.185,0C86.404,71.189,86.404,75.811,86.404,80.47z M113.591,47.453c-9.095,0-18.11,0-27.175,0
				c0,4.723,0,9.369,0,14.075c9.089,0,18.102,0,27.175,0C113.591,56.832,113.591,52.211,113.591,47.453z M43.554,85.438
				c-9.157,0-18.17,0-27.246,0c0,4.032,0,7.97,0,11.904c0,2.041,0.146,2.202,2.153,2.203c7.992,0.006,15.984,0.003,23.976-0.001
				c0.367,0,0.733-0.055,1.117-0.085C43.554,94.721,43.554,90.104,43.554,85.438z M86.413,99.452
				c0.343,0.032,0.606,0.083,0.87,0.083c8.261,0.007,16.521,0.015,24.779,0.007c1.231-0.002,1.574-0.36,1.582-1.604
				c0.017-2.625,0.004-5.25,0.004-7.875c0-1.531,0-3.063,0-4.648c-9.145,0-18.153,0-27.235,0
				C86.413,90.098,86.413,94.711,86.413,99.452z"/>
		</g>
	</g>
	<path fill="#FFFFFF" d="M117.203,35.666c0,5.148-4.09,9.322-9.133,9.322H21.579c-5.044,0-9.133-4.173-9.133-9.322l0,0
		c0-5.148,4.089-9.321,9.133-9.321h86.491C113.113,26.344,117.203,30.518,117.203,35.666L117.203,35.666z"/>
	<g>
		<g enable-background="new    ">
			<text transform="matrix(0.9832 0 0 1 16.3892 40.5479)" fill="#FF0000" font-family="'Impact'" font-size="10.9895">RB Post Views Column</text>
		</g>
	</g>
</g>
</svg>
